# Octodraw OBJ export
v 9.500000 0.500000 39.500000
v 9.500000 0.500000 40.500000
v 10.500000 0.500000 40.500000
f 1 2 3
v 9.500000 0.500000 39.500000
v 10.500000 0.500000 40.500000
v 10.500000 0.500000 39.500000
f 4 5 6
v 8.500000 0.500000 40.500000
v 8.500000 0.500000 41.500000
v 9.500000 0.500000 41.500000
f 7 8 9
v 8.500000 0.500000 40.500000
v 9.500000 0.500000 41.500000
v 9.500000 0.500000 40.500000
f 10 11 12
v 11.500000 0.500000 40.500000
v 11.500000 0.500000 41.500000
v 12.500000 0.500000 41.500000
f 13 14 15
v 11.500000 0.500000 40.500000
v 12.500000 0.500000 41.500000
v 12.500000 0.500000 40.500000
f 16 17 18
v 14.500000 0.500000 40.500000
v 14.500000 0.500000 41.500000
v 15.500000 0.500000 41.500000
f 19 20 21
v 14.500000 0.500000 40.500000
v 15.500000 0.500000 41.500000
v 15.500000 0.500000 40.500000
f 22 23 24
v 8.500000 1.500000 39.500000
v 8.500000 1.500000 40.500000
v 9.500000 1.500000 40.500000
f 25 26 27
v 8.500000 1.500000 39.500000
v 9.500000 1.500000 40.500000
v 9.500000 1.500000 39.500000
f 28 29 30
v 10.500000 1.500000 39.500000
v 10.500000 1.500000 40.500000
v 11.500000 1.500000 40.500000
f 31 32 33
v 10.500000 1.500000 39.500000
v 11.500000 1.500000 40.500000
v 11.500000 1.500000 39.500000
f 34 35 36
v 11.500000 1.500000 39.500000
v 11.500000 1.500000 40.500000
v 12.500000 1.500000 40.500000
f 37 38 39
v 11.500000 1.500000 39.500000
v 12.500000 1.500000 40.500000
v 12.500000 1.500000 39.500000
f 40 41 42
v 12.500000 1.500000 39.500000
v 12.500000 1.500000 40.500000
v 13.500000 1.500000 40.500000
f 43 44 45
v 12.500000 1.500000 39.500000
v 13.500000 1.500000 40.500000
v 13.500000 1.500000 39.500000
f 46 47 48
v 13.500000 1.500000 39.500000
v 13.500000 1.500000 40.500000
v 14.500000 1.500000 40.500000
f 49 50 51
v 13.500000 1.500000 39.500000
v 14.500000 1.500000 40.500000
v 14.500000 1.500000 39.500000
f 52 53 54
v 14.500000 1.500000 39.500000
v 14.500000 1.500000 40.500000
v 15.500000 1.500000 40.500000
f 55 56 57
v 14.500000 1.500000 39.500000
v 15.500000 1.500000 40.500000
v 15.500000 1.500000 39.500000
f 58 59 60
v 9.500000 1.500000 40.500000
v 9.500000 1.500000 41.500000
v 10.500000 1.500000 41.500000
f 61 62 63
v 9.500000 1.500000 40.500000
v 10.500000 1.500000 41.500000
v 10.500000 1.500000 40.500000
f 64 65 66
v 10.500000 1.500000 40.500000
v 10.500000 1.500000 41.500000
v 11.500000 1.500000 41.500000
f 67 68 69
v 10.500000 1.500000 40.500000
v 11.500000 1.500000 41.500000
v 11.500000 1.500000 40.500000
f 70 71 72
v 12.500000 1.500000 40.500000
v 12.500000 1.500000 41.500000
v 13.500000 1.500000 41.500000
f 73 74 75
v 12.500000 1.500000 40.500000
v 13.500000 1.500000 41.500000
v 13.500000 1.500000 40.500000
f 76 77 78
v 13.500000 1.500000 40.500000
v 13.500000 1.500000 41.500000
v 14.500000 1.500000 41.500000
f 79 80 81
v 13.500000 1.500000 40.500000
v 14.500000 1.500000 41.500000
v 14.500000 1.500000 40.500000
f 82 83 84
v 8.500000 -0.500000 40.500000
v 8.500000 -0.500000 39.500000
v 9.500000 -0.500000 39.500000
f 85 86 87
v 8.500000 -0.500000 40.500000
v 9.500000 -0.500000 39.500000
v 9.500000 -0.500000 40.500000
f 88 89 90
v 8.500000 -0.500000 41.500000
v 8.500000 -0.500000 40.500000
v 9.500000 -0.500000 40.500000
f 91 92 93
v 8.500000 -0.500000 41.500000
v 9.500000 -0.500000 40.500000
v 9.500000 -0.500000 41.500000
f 94 95 96
v 9.500000 -0.500000 40.500000
v 9.500000 -0.500000 39.500000
v 10.500000 -0.500000 39.500000
f 97 98 99
v 9.500000 -0.500000 40.500000
v 10.500000 -0.500000 39.500000
v 10.500000 -0.500000 40.500000
f 100 101 102
v 9.500000 -0.500000 41.500000
v 9.500000 -0.500000 40.500000
v 10.500000 -0.500000 40.500000
f 103 104 105
v 9.500000 -0.500000 41.500000
v 10.500000 -0.500000 40.500000
v 10.500000 -0.500000 41.500000
f 106 107 108
v 10.500000 -0.500000 40.500000
v 10.500000 -0.500000 39.500000
v 11.500000 -0.500000 39.500000
f 109 110 111
v 10.500000 -0.500000 40.500000
v 11.500000 -0.500000 39.500000
v 11.500000 -0.500000 40.500000
f 112 113 114
v 10.500000 -0.500000 41.500000
v 10.500000 -0.500000 40.500000
v 11.500000 -0.500000 40.500000
f 115 116 117
v 10.500000 -0.500000 41.500000
v 11.500000 -0.500000 40.500000
v 11.500000 -0.500000 41.500000
f 118 119 120
v 11.500000 -0.500000 40.500000
v 11.500000 -0.500000 39.500000
v 12.500000 -0.500000 39.500000
f 121 122 123
v 11.500000 -0.500000 40.500000
v 12.500000 -0.500000 39.500000
v 12.500000 -0.500000 40.500000
f 124 125 126
v 11.500000 -0.500000 41.500000
v 11.500000 -0.500000 40.500000
v 12.500000 -0.500000 40.500000
f 127 128 129
v 11.500000 -0.500000 41.500000
v 12.500000 -0.500000 40.500000
v 12.500000 -0.500000 41.500000
f 130 131 132
v 12.500000 -0.500000 40.500000
v 12.500000 -0.500000 39.500000
v 13.500000 -0.500000 39.500000
f 133 134 135
v 12.500000 -0.500000 40.500000
v 13.500000 -0.500000 39.500000
v 13.500000 -0.500000 40.500000
f 136 137 138
v 12.500000 -0.500000 41.500000
v 12.500000 -0.500000 40.500000
v 13.500000 -0.500000 40.500000
f 139 140 141
v 12.500000 -0.500000 41.500000
v 13.500000 -0.500000 40.500000
v 13.500000 -0.500000 41.500000
f 142 143 144
v 13.500000 -0.500000 40.500000
v 13.500000 -0.500000 39.500000
v 14.500000 -0.500000 39.500000
f 145 146 147
v 13.500000 -0.500000 40.500000
v 14.500000 -0.500000 39.500000
v 14.500000 -0.500000 40.500000
f 148 149 150
v 13.500000 -0.500000 41.500000
v 13.500000 -0.500000 40.500000
v 14.500000 -0.500000 40.500000
f 151 152 153
v 13.500000 -0.500000 41.500000
v 14.500000 -0.500000 40.500000
v 14.500000 -0.500000 41.500000
f 154 155 156
v 14.500000 -0.500000 40.500000
v 14.500000 -0.500000 39.500000
v 15.500000 -0.500000 39.500000
f 157 158 159
v 14.500000 -0.500000 40.500000
v 15.500000 -0.500000 39.500000
v 15.500000 -0.500000 40.500000
f 160 161 162
v 14.500000 -0.500000 41.500000
v 14.500000 -0.500000 40.500000
v 15.500000 -0.500000 40.500000
f 163 164 165
v 14.500000 -0.500000 41.500000
v 15.500000 -0.500000 40.500000
v 15.500000 -0.500000 41.500000
f 166 167 168
v 8.500000 0.500000 40.500000
v 9.500000 0.500000 40.500000
v 9.500000 1.500000 40.500000
f 169 170 171
v 8.500000 0.500000 40.500000
v 9.500000 1.500000 40.500000
v 8.500000 1.500000 40.500000
f 172 173 174
v 11.500000 0.500000 40.500000
v 12.500000 0.500000 40.500000
v 12.500000 1.500000 40.500000
f 175 176 177
v 11.500000 0.500000 40.500000
v 12.500000 1.500000 40.500000
v 11.500000 1.500000 40.500000
f 178 179 180
v 14.500000 0.500000 40.500000
v 15.500000 0.500000 40.500000
v 15.500000 1.500000 40.500000
f 181 182 183
v 14.500000 0.500000 40.500000
v 15.500000 1.500000 40.500000
v 14.500000 1.500000 40.500000
f 184 185 186
v 8.500000 -0.500000 41.500000
v 9.500000 -0.500000 41.500000
v 9.500000 0.500000 41.500000
f 187 188 189
v 8.500000 -0.500000 41.500000
v 9.500000 0.500000 41.500000
v 8.500000 0.500000 41.500000
f 190 191 192
v 9.500000 -0.500000 41.500000
v 10.500000 -0.500000 41.500000
v 10.500000 0.500000 41.500000
f 193 194 195
v 9.500000 -0.500000 41.500000
v 10.500000 0.500000 41.500000
v 9.500000 0.500000 41.500000
f 196 197 198
v 10.500000 -0.500000 41.500000
v 11.500000 -0.500000 41.500000
v 11.500000 0.500000 41.500000
f 199 200 201
v 10.500000 -0.500000 41.500000
v 11.500000 0.500000 41.500000
v 10.500000 0.500000 41.500000
f 202 203 204
v 11.500000 -0.500000 41.500000
v 12.500000 -0.500000 41.500000
v 12.500000 0.500000 41.500000
f 205 206 207
v 11.500000 -0.500000 41.500000
v 12.500000 0.500000 41.500000
v 11.500000 0.500000 41.500000
f 208 209 210
v 12.500000 -0.500000 41.500000
v 13.500000 -0.500000 41.500000
v 13.500000 0.500000 41.500000
f 211 212 213
v 12.500000 -0.500000 41.500000
v 13.500000 0.500000 41.500000
v 12.500000 0.500000 41.500000
f 214 215 216
v 13.500000 -0.500000 41.500000
v 14.500000 -0.500000 41.500000
v 14.500000 0.500000 41.500000
f 217 218 219
v 13.500000 -0.500000 41.500000
v 14.500000 0.500000 41.500000
v 13.500000 0.500000 41.500000
f 220 221 222
v 14.500000 -0.500000 41.500000
v 15.500000 -0.500000 41.500000
v 15.500000 0.500000 41.500000
f 223 224 225
v 14.500000 -0.500000 41.500000
v 15.500000 0.500000 41.500000
v 14.500000 0.500000 41.500000
f 226 227 228
v 9.500000 0.500000 41.500000
v 10.500000 0.500000 41.500000
v 10.500000 1.500000 41.500000
f 229 230 231
v 9.500000 0.500000 41.500000
v 10.500000 1.500000 41.500000
v 9.500000 1.500000 41.500000
f 232 233 234
v 10.500000 0.500000 41.500000
v 11.500000 0.500000 41.500000
v 11.500000 1.500000 41.500000
f 235 236 237
v 10.500000 0.500000 41.500000
v 11.500000 1.500000 41.500000
v 10.500000 1.500000 41.500000
f 238 239 240
v 12.500000 0.500000 41.500000
v 13.500000 0.500000 41.500000
v 13.500000 1.500000 41.500000
f 241 242 243
v 12.500000 0.500000 41.500000
v 13.500000 1.500000 41.500000
v 12.500000 1.500000 41.500000
f 244 245 246
v 13.500000 0.500000 41.500000
v 14.500000 0.500000 41.500000
v 14.500000 1.500000 41.500000
f 247 248 249
v 13.500000 0.500000 41.500000
v 14.500000 1.500000 41.500000
v 13.500000 1.500000 41.500000
f 250 251 252
v 9.500000 -0.500000 39.500000
v 8.500000 -0.500000 39.500000
v 8.500000 0.500000 39.500000
f 253 254 255
v 9.500000 -0.500000 39.500000
v 8.500000 0.500000 39.500000
v 9.500000 0.500000 39.500000
f 256 257 258
v 10.500000 -0.500000 39.500000
v 9.500000 -0.500000 39.500000
v 9.500000 0.500000 39.500000
f 259 260 261
v 10.500000 -0.500000 39.500000
v 9.500000 0.500000 39.500000
v 10.500000 0.500000 39.500000
f 262 263 264
v 11.500000 -0.500000 39.500000
v 10.500000 -0.500000 39.500000
v 10.500000 0.500000 39.500000
f 265 266 267
v 11.500000 -0.500000 39.500000
v 10.500000 0.500000 39.500000
v 11.500000 0.500000 39.500000
f 268 269 270
v 12.500000 -0.500000 39.500000
v 11.500000 -0.500000 39.500000
v 11.500000 0.500000 39.500000
f 271 272 273
v 12.500000 -0.500000 39.500000
v 11.500000 0.500000 39.500000
v 12.500000 0.500000 39.500000
f 274 275 276
v 13.500000 -0.500000 39.500000
v 12.500000 -0.500000 39.500000
v 12.500000 0.500000 39.500000
f 277 278 279
v 13.500000 -0.500000 39.500000
v 12.500000 0.500000 39.500000
v 13.500000 0.500000 39.500000
f 280 281 282
v 14.500000 -0.500000 39.500000
v 13.500000 -0.500000 39.500000
v 13.500000 0.500000 39.500000
f 283 284 285
v 14.500000 -0.500000 39.500000
v 13.500000 0.500000 39.500000
v 14.500000 0.500000 39.500000
f 286 287 288
v 15.500000 -0.500000 39.500000
v 14.500000 -0.500000 39.500000
v 14.500000 0.500000 39.500000
f 289 290 291
v 15.500000 -0.500000 39.500000
v 14.500000 0.500000 39.500000
v 15.500000 0.500000 39.500000
f 292 293 294
v 9.500000 0.500000 39.500000
v 8.500000 0.500000 39.500000
v 8.500000 1.500000 39.500000
f 295 296 297
v 9.500000 0.500000 39.500000
v 8.500000 1.500000 39.500000
v 9.500000 1.500000 39.500000
f 298 299 300
v 11.500000 0.500000 39.500000
v 10.500000 0.500000 39.500000
v 10.500000 1.500000 39.500000
f 301 302 303
v 11.500000 0.500000 39.500000
v 10.500000 1.500000 39.500000
v 11.500000 1.500000 39.500000
f 304 305 306
v 12.500000 0.500000 39.500000
v 11.500000 0.500000 39.500000
v 11.500000 1.500000 39.500000
f 307 308 309
v 12.500000 0.500000 39.500000
v 11.500000 1.500000 39.500000
v 12.500000 1.500000 39.500000
f 310 311 312
v 13.500000 0.500000 39.500000
v 12.500000 0.500000 39.500000
v 12.500000 1.500000 39.500000
f 313 314 315
v 13.500000 0.500000 39.500000
v 12.500000 1.500000 39.500000
v 13.500000 1.500000 39.500000
f 316 317 318
v 14.500000 0.500000 39.500000
v 13.500000 0.500000 39.500000
v 13.500000 1.500000 39.500000
f 319 320 321
v 14.500000 0.500000 39.500000
v 13.500000 1.500000 39.500000
v 14.500000 1.500000 39.500000
f 322 323 324
v 15.500000 0.500000 39.500000
v 14.500000 0.500000 39.500000
v 14.500000 1.500000 39.500000
f 325 326 327
v 15.500000 0.500000 39.500000
v 14.500000 1.500000 39.500000
v 15.500000 1.500000 39.500000
f 328 329 330
v 10.500000 0.500000 40.500000
v 9.500000 0.500000 40.500000
v 9.500000 1.500000 40.500000
f 331 332 333
v 10.500000 0.500000 40.500000
v 9.500000 1.500000 40.500000
v 10.500000 1.500000 40.500000
f 334 335 336
v 9.500000 0.500000 40.500000
v 9.500000 0.500000 39.500000
v 9.500000 1.500000 39.500000
f 337 338 339
v 9.500000 0.500000 40.500000
v 9.500000 1.500000 39.500000
v 9.500000 1.500000 40.500000
f 340 341 342
v 11.500000 0.500000 41.500000
v 11.500000 0.500000 40.500000
v 11.500000 1.500000 40.500000
f 343 344 345
v 11.500000 0.500000 41.500000
v 11.500000 1.500000 40.500000
v 11.500000 1.500000 41.500000
f 346 347 348
v 14.500000 0.500000 41.500000
v 14.500000 0.500000 40.500000
v 14.500000 1.500000 40.500000
f 349 350 351
v 14.500000 0.500000 41.500000
v 14.500000 1.500000 40.500000
v 14.500000 1.500000 41.500000
f 352 353 354
v 15.500000 0.500000 40.500000
v 15.500000 0.500000 39.500000
v 15.500000 1.500000 39.500000
f 355 356 357
v 15.500000 0.500000 40.500000
v 15.500000 1.500000 39.500000
v 15.500000 1.500000 40.500000
f 358 359 360
v 8.500000 -0.500000 39.500000
v 8.500000 -0.500000 40.500000
v 8.500000 0.500000 40.500000
f 361 362 363
v 8.500000 -0.500000 39.500000
v 8.500000 0.500000 40.500000
v 8.500000 0.500000 39.500000
f 364 365 366
v 8.500000 -0.500000 40.500000
v 8.500000 -0.500000 41.500000
v 8.500000 0.500000 41.500000
f 367 368 369
v 8.500000 -0.500000 40.500000
v 8.500000 0.500000 41.500000
v 8.500000 0.500000 40.500000
f 370 371 372
v 8.500000 0.500000 39.500000
v 8.500000 0.500000 40.500000
v 8.500000 1.500000 40.500000
f 373 374 375
v 8.500000 0.500000 39.500000
v 8.500000 1.500000 40.500000
v 8.500000 1.500000 39.500000
f 376 377 378
v 9.500000 0.500000 40.500000
v 9.500000 0.500000 41.500000
v 9.500000 1.500000 41.500000
f 379 380 381
v 9.500000 0.500000 40.500000
v 9.500000 1.500000 41.500000
v 9.500000 1.500000 40.500000
f 382 383 384
v 10.500000 0.500000 39.500000
v 10.500000 0.500000 40.500000
v 10.500000 1.500000 40.500000
f 385 386 387
v 10.500000 0.500000 39.500000
v 10.500000 1.500000 40.500000
v 10.500000 1.500000 39.500000
f 388 389 390
v 12.500000 0.500000 40.500000
v 12.500000 0.500000 41.500000
v 12.500000 1.500000 41.500000
f 391 392 393
v 12.500000 0.500000 40.500000
v 12.500000 1.500000 41.500000
v 12.500000 1.500000 40.500000
f 394 395 396
v 19.500000 0.500000 38.500000
v 19.500000 0.500000 39.500000
v 20.500000 0.500000 39.500000
f 397 398 399
v 19.500000 0.500000 38.500000
v 20.500000 0.500000 39.500000
v 20.500000 0.500000 38.500000
f 400 401 402
v 15.500000 0.500000 39.500000
v 15.500000 0.500000 40.500000
v 16.500000 0.500000 40.500000
f 403 404 405
v 15.500000 0.500000 39.500000
v 16.500000 0.500000 40.500000
v 16.500000 0.500000 39.500000
f 406 407 408
v 17.500000 0.500000 40.500000
v 17.500000 0.500000 41.500000
v 18.500000 0.500000 41.500000
f 409 410 411
v 17.500000 0.500000 40.500000
v 18.500000 0.500000 41.500000
v 18.500000 0.500000 40.500000
f 412 413 414
v 20.500000 0.500000 40.500000
v 20.500000 0.500000 41.500000
v 21.500000 0.500000 41.500000
f 415 416 417
v 20.500000 0.500000 40.500000
v 21.500000 0.500000 41.500000
v 21.500000 0.500000 40.500000
f 418 419 420
v 19.500000 0.500000 42.500000
v 19.500000 0.500000 43.500000
v 20.500000 0.500000 43.500000
f 421 422 423
v 19.500000 0.500000 42.500000
v 20.500000 0.500000 43.500000
v 20.500000 0.500000 42.500000
f 424 425 426
v 19.500000 1.500000 36.500000
v 19.500000 1.500000 37.500000
v 20.500000 1.500000 37.500000
f 427 428 429
v 19.500000 1.500000 36.500000
v 20.500000 1.500000 37.500000
v 20.500000 1.500000 36.500000
f 430 431 432
v 19.500000 1.500000 37.500000
v 19.500000 1.500000 38.500000
v 20.500000 1.500000 38.500000
f 433 434 435
v 19.500000 1.500000 37.500000
v 20.500000 1.500000 38.500000
v 20.500000 1.500000 37.500000
f 436 437 438
v 20.500000 1.500000 36.500000
v 20.500000 1.500000 37.500000
v 21.500000 1.500000 37.500000
f 439 440 441
v 20.500000 1.500000 36.500000
v 21.500000 1.500000 37.500000
v 21.500000 1.500000 36.500000
f 442 443 444
v 20.500000 1.500000 37.500000
v 20.500000 1.500000 38.500000
v 21.500000 1.500000 38.500000
f 445 446 447
v 20.500000 1.500000 37.500000
v 21.500000 1.500000 38.500000
v 21.500000 1.500000 37.500000
f 448 449 450
v 20.500000 1.500000 38.500000
v 20.500000 1.500000 39.500000
v 21.500000 1.500000 39.500000
f 451 452 453
v 20.500000 1.500000 38.500000
v 21.500000 1.500000 39.500000
v 21.500000 1.500000 38.500000
f 454 455 456
v 20.500000 1.500000 39.500000
v 20.500000 1.500000 40.500000
v 21.500000 1.500000 40.500000
f 457 458 459
v 20.500000 1.500000 39.500000
v 21.500000 1.500000 40.500000
v 21.500000 1.500000 39.500000
f 460 461 462
v 16.500000 1.500000 39.500000
v 16.500000 1.500000 40.500000
v 17.500000 1.500000 40.500000
f 463 464 465
v 16.500000 1.500000 39.500000
v 17.500000 1.500000 40.500000
v 17.500000 1.500000 39.500000
f 466 467 468
v 17.500000 1.500000 39.500000
v 17.500000 1.500000 40.500000
v 18.500000 1.500000 40.500000
f 469 470 471
v 17.500000 1.500000 39.500000
v 18.500000 1.500000 40.500000
v 18.500000 1.500000 39.500000
f 472 473 474
v 18.500000 1.500000 39.500000
v 18.500000 1.500000 40.500000
v 19.500000 1.500000 40.500000
f 475 476 477
v 18.500000 1.500000 39.500000
v 19.500000 1.500000 40.500000
v 19.500000 1.500000 39.500000
f 478 479 480
v 19.500000 1.500000 39.500000
v 19.500000 1.500000 40.500000
v 20.500000 1.500000 40.500000
f 481 482 483
v 19.500000 1.500000 39.500000
v 20.500000 1.500000 40.500000
v 20.500000 1.500000 39.500000
f 484 485 486
v 15.500000 1.500000 40.500000
v 15.500000 1.500000 41.500000
v 16.500000 1.500000 41.500000
f 487 488 489
v 15.500000 1.500000 40.500000
v 16.500000 1.500000 41.500000
v 16.500000 1.500000 40.500000
f 490 491 492
v 16.500000 1.500000 40.500000
v 16.500000 1.500000 41.500000
v 17.500000 1.500000 41.500000
f 493 494 495
v 16.500000 1.500000 40.500000
v 17.500000 1.500000 41.500000
v 17.500000 1.500000 40.500000
f 496 497 498
v 18.500000 1.500000 40.500000
v 18.500000 1.500000 41.500000
v 19.500000 1.500000 41.500000
f 499 500 501
v 18.500000 1.500000 40.500000
v 19.500000 1.500000 41.500000
v 19.500000 1.500000 40.500000
f 502 503 504
v 19.500000 1.500000 40.500000
v 19.500000 1.500000 41.500000
v 20.500000 1.500000 41.500000
f 505 506 507
v 19.500000 1.500000 40.500000
v 20.500000 1.500000 41.500000
v 20.500000 1.500000 40.500000
f 508 509 510
v 19.500000 1.500000 41.500000
v 19.500000 1.500000 42.500000
v 20.500000 1.500000 42.500000
f 511 512 513
v 19.500000 1.500000 41.500000
v 20.500000 1.500000 42.500000
v 20.500000 1.500000 41.500000
f 514 515 516
v 20.500000 1.500000 41.500000
v 20.500000 1.500000 42.500000
v 21.500000 1.500000 42.500000
f 517 518 519
v 20.500000 1.500000 41.500000
v 21.500000 1.500000 42.500000
v 21.500000 1.500000 41.500000
f 520 521 522
v 20.500000 1.500000 42.500000
v 20.500000 1.500000 43.500000
v 21.500000 1.500000 43.500000
f 523 524 525
v 20.500000 1.500000 42.500000
v 21.500000 1.500000 43.500000
v 21.500000 1.500000 42.500000
f 526 527 528
v 20.500000 1.500000 43.500000
v 20.500000 1.500000 44.500000
v 21.500000 1.500000 44.500000
f 529 530 531
v 20.500000 1.500000 43.500000
v 21.500000 1.500000 44.500000
v 21.500000 1.500000 43.500000
f 532 533 534
v 19.500000 1.500000 43.500000
v 19.500000 1.500000 44.500000
v 20.500000 1.500000 44.500000
f 535 536 537
v 19.500000 1.500000 43.500000
v 20.500000 1.500000 44.500000
v 20.500000 1.500000 43.500000
f 538 539 540
v 19.500000 -0.500000 37.500000
v 19.500000 -0.500000 36.500000
v 20.500000 -0.500000 36.500000
f 541 542 543
v 19.500000 -0.500000 37.500000
v 20.500000 -0.500000 36.500000
v 20.500000 -0.500000 37.500000
f 544 545 546
v 19.500000 -0.500000 38.500000
v 19.500000 -0.500000 37.500000
v 20.500000 -0.500000 37.500000
f 547 548 549
v 19.500000 -0.500000 38.500000
v 20.500000 -0.500000 37.500000
v 20.500000 -0.500000 38.500000
f 550 551 552
v 19.500000 -0.500000 39.500000
v 19.500000 -0.500000 38.500000
v 20.500000 -0.500000 38.500000
f 553 554 555
v 19.500000 -0.500000 39.500000
v 20.500000 -0.500000 38.500000
v 20.500000 -0.500000 39.500000
f 556 557 558
v 20.500000 -0.500000 37.500000
v 20.500000 -0.500000 36.500000
v 21.500000 -0.500000 36.500000
f 559 560 561
v 20.500000 -0.500000 37.500000
v 21.500000 -0.500000 36.500000
v 21.500000 -0.500000 37.500000
f 562 563 564
v 20.500000 -0.500000 38.500000
v 20.500000 -0.500000 37.500000
v 21.500000 -0.500000 37.500000
f 565 566 567
v 20.500000 -0.500000 38.500000
v 21.500000 -0.500000 37.500000
v 21.500000 -0.500000 38.500000
f 568 569 570
v 20.500000 -0.500000 39.500000
v 20.500000 -0.500000 38.500000
v 21.500000 -0.500000 38.500000
f 571 572 573
v 20.500000 -0.500000 39.500000
v 21.500000 -0.500000 38.500000
v 21.500000 -0.500000 39.500000
f 574 575 576
v 19.500000 -0.500000 40.500000
v 19.500000 -0.500000 39.500000
v 20.500000 -0.500000 39.500000
f 577 578 579
v 19.500000 -0.500000 40.500000
v 20.500000 -0.500000 39.500000
v 20.500000 -0.500000 40.500000
f 580 581 582
v 19.500000 -0.500000 41.500000
v 19.500000 -0.500000 40.500000
v 20.500000 -0.500000 40.500000
f 583 584 585
v 19.500000 -0.500000 41.500000
v 20.500000 -0.500000 40.500000
v 20.500000 -0.500000 41.500000
f 586 587 588
v 20.500000 -0.500000 40.500000
v 20.500000 -0.500000 39.500000
v 21.500000 -0.500000 39.500000
f 589 590 591
v 20.500000 -0.500000 40.500000
v 21.500000 -0.500000 39.500000
v 21.500000 -0.500000 40.500000
f 592 593 594
v 20.500000 -0.500000 41.500000
v 20.500000 -0.500000 40.500000
v 21.500000 -0.500000 40.500000
f 595 596 597
v 20.500000 -0.500000 41.500000
v 21.500000 -0.500000 40.500000
v 21.500000 -0.500000 41.500000
f 598 599 600
v 19.500000 -0.500000 42.500000
v 19.500000 -0.500000 41.500000
v 20.500000 -0.500000 41.500000
f 601 602 603
v 19.500000 -0.500000 42.500000
v 20.500000 -0.500000 41.500000
v 20.500000 -0.500000 42.500000
f 604 605 606
v 19.500000 -0.500000 43.500000
v 19.500000 -0.500000 42.500000
v 20.500000 -0.500000 42.500000
f 607 608 609
v 19.500000 -0.500000 43.500000
v 20.500000 -0.500000 42.500000
v 20.500000 -0.500000 43.500000
f 610 611 612
v 19.500000 -0.500000 44.500000
v 19.500000 -0.500000 43.500000
v 20.500000 -0.500000 43.500000
f 613 614 615
v 19.500000 -0.500000 44.500000
v 20.500000 -0.500000 43.500000
v 20.500000 -0.500000 44.500000
f 616 617 618
v 20.500000 -0.500000 42.500000
v 20.500000 -0.500000 41.500000
v 21.500000 -0.500000 41.500000
f 619 620 621
v 20.500000 -0.500000 42.500000
v 21.500000 -0.500000 41.500000
v 21.500000 -0.500000 42.500000
f 622 623 624
v 20.500000 -0.500000 43.500000
v 20.500000 -0.500000 42.500000
v 21.500000 -0.500000 42.500000
f 625 626 627
v 20.500000 -0.500000 43.500000
v 21.500000 -0.500000 42.500000
v 21.500000 -0.500000 43.500000
f 628 629 630
v 20.500000 -0.500000 44.500000
v 20.500000 -0.500000 43.500000
v 21.500000 -0.500000 43.500000
f 631 632 633
v 20.500000 -0.500000 44.500000
v 21.500000 -0.500000 43.500000
v 21.500000 -0.500000 44.500000
f 634 635 636
v 15.500000 -0.500000 40.500000
v 15.500000 -0.500000 39.500000
v 16.500000 -0.500000 39.500000
f 637 638 639
v 15.500000 -0.500000 40.500000
v 16.500000 -0.500000 39.500000
v 16.500000 -0.500000 40.500000
f 640 641 642
v 15.500000 -0.500000 41.500000
v 15.500000 -0.500000 40.500000
v 16.500000 -0.500000 40.500000
f 643 644 645
v 15.500000 -0.500000 41.500000
v 16.500000 -0.500000 40.500000
v 16.500000 -0.500000 41.500000
f 646 647 648
v 16.500000 -0.500000 40.500000
v 16.500000 -0.500000 39.500000
v 17.500000 -0.500000 39.500000
f 649 650 651
v 16.500000 -0.500000 40.500000
v 17.500000 -0.500000 39.500000
v 17.500000 -0.500000 40.500000
f 652 653 654
v 16.500000 -0.500000 41.500000
v 16.500000 -0.500000 40.500000
v 17.500000 -0.500000 40.500000
f 655 656 657
v 16.500000 -0.500000 41.500000
v 17.500000 -0.500000 40.500000
v 17.500000 -0.500000 41.500000
f 658 659 660
v 17.500000 -0.500000 40.500000
v 17.500000 -0.500000 39.500000
v 18.500000 -0.500000 39.500000
f 661 662 663
v 17.500000 -0.500000 40.500000
v 18.500000 -0.500000 39.500000
v 18.500000 -0.500000 40.500000
f 664 665 666
v 17.500000 -0.500000 41.500000
v 17.500000 -0.500000 40.500000
v 18.500000 -0.500000 40.500000
f 667 668 669
v 17.500000 -0.500000 41.500000
v 18.500000 -0.500000 40.500000
v 18.500000 -0.500000 41.500000
f 670 671 672
v 18.500000 -0.500000 40.500000
v 18.500000 -0.500000 39.500000
v 19.500000 -0.500000 39.500000
f 673 674 675
v 18.500000 -0.500000 40.500000
v 19.500000 -0.500000 39.500000
v 19.500000 -0.500000 40.500000
f 676 677 678
v 18.500000 -0.500000 41.500000
v 18.500000 -0.500000 40.500000
v 19.500000 -0.500000 40.500000
f 679 680 681
v 18.500000 -0.500000 41.500000
v 19.500000 -0.500000 40.500000
v 19.500000 -0.500000 41.500000
f 682 683 684
v 19.500000 0.500000 38.500000
v 20.500000 0.500000 38.500000
v 20.500000 1.500000 38.500000
f 685 686 687
v 19.500000 0.500000 38.500000
v 20.500000 1.500000 38.500000
v 19.500000 1.500000 38.500000
f 688 689 690
v 17.500000 0.500000 40.500000
v 18.500000 0.500000 40.500000
v 18.500000 1.500000 40.500000
f 691 692 693
v 17.500000 0.500000 40.500000
v 18.500000 1.500000 40.500000
v 17.500000 1.500000 40.500000
f 694 695 696
v 20.500000 0.500000 40.500000
v 21.500000 0.500000 40.500000
v 21.500000 1.500000 40.500000
f 697 698 699
v 20.500000 0.500000 40.500000
v 21.500000 1.500000 40.500000
v 20.500000 1.500000 40.500000
f 700 701 702
v 15.500000 -0.500000 41.500000
v 16.500000 -0.500000 41.500000
v 16.500000 0.500000 41.500000
f 703 704 705
v 15.500000 -0.500000 41.500000
v 16.500000 0.500000 41.500000
v 15.500000 0.500000 41.500000
f 706 707 708
v 16.500000 -0.500000 41.500000
v 17.500000 -0.500000 41.500000
v 17.500000 0.500000 41.500000
f 709 710 711
v 16.500000 -0.500000 41.500000
v 17.500000 0.500000 41.500000
v 16.500000 0.500000 41.500000
f 712 713 714
v 17.500000 -0.500000 41.500000
v 18.500000 -0.500000 41.500000
v 18.500000 0.500000 41.500000
f 715 716 717
v 17.500000 -0.500000 41.500000
v 18.500000 0.500000 41.500000
v 17.500000 0.500000 41.500000
f 718 719 720
v 18.500000 -0.500000 41.500000
v 19.500000 -0.500000 41.500000
v 19.500000 0.500000 41.500000
f 721 722 723
v 18.500000 -0.500000 41.500000
v 19.500000 0.500000 41.500000
v 18.500000 0.500000 41.500000
f 724 725 726
v 15.500000 0.500000 41.500000
v 16.500000 0.500000 41.500000
v 16.500000 1.500000 41.500000
f 727 728 729
v 15.500000 0.500000 41.500000
v 16.500000 1.500000 41.500000
v 15.500000 1.500000 41.500000
f 730 731 732
v 16.500000 0.500000 41.500000
v 17.500000 0.500000 41.500000
v 17.500000 1.500000 41.500000
f 733 734 735
v 16.500000 0.500000 41.500000
v 17.500000 1.500000 41.500000
v 16.500000 1.500000 41.500000
f 736 737 738
v 18.500000 0.500000 41.500000
v 19.500000 0.500000 41.500000
v 19.500000 1.500000 41.500000
f 739 740 741
v 18.500000 0.500000 41.500000
v 19.500000 1.500000 41.500000
v 18.500000 1.500000 41.500000
f 742 743 744
v 19.500000 0.500000 42.500000
v 20.500000 0.500000 42.500000
v 20.500000 1.500000 42.500000
f 745 746 747
v 19.500000 0.500000 42.500000
v 20.500000 1.500000 42.500000
v 19.500000 1.500000 42.500000
f 748 749 750
v 19.500000 -0.500000 44.500000
v 20.500000 -0.500000 44.500000
v 20.500000 0.500000 44.500000
f 751 752 753
v 19.500000 -0.500000 44.500000
v 20.500000 0.500000 44.500000
v 19.500000 0.500000 44.500000
f 754 755 756
v 19.500000 0.500000 44.500000
v 20.500000 0.500000 44.500000
v 20.500000 1.500000 44.500000
f 757 758 759
v 19.500000 0.500000 44.500000
v 20.500000 1.500000 44.500000
v 19.500000 1.500000 44.500000
f 760 761 762
v 20.500000 -0.500000 44.500000
v 21.500000 -0.500000 44.500000
v 21.500000 0.500000 44.500000
f 763 764 765
v 20.500000 -0.500000 44.500000
v 21.500000 0.500000 44.500000
v 20.500000 0.500000 44.500000
f 766 767 768
v 20.500000 0.500000 44.500000
v 21.500000 0.500000 44.500000
v 21.500000 1.500000 44.500000
f 769 770 771
v 20.500000 0.500000 44.500000
v 21.500000 1.500000 44.500000
v 20.500000 1.500000 44.500000
f 772 773 774
v 20.500000 -0.500000 36.500000
v 19.500000 -0.500000 36.500000
v 19.500000 0.500000 36.500000
f 775 776 777
v 20.500000 -0.500000 36.500000
v 19.500000 0.500000 36.500000
v 20.500000 0.500000 36.500000
f 778 779 780
v 20.500000 0.500000 36.500000
v 19.500000 0.500000 36.500000
v 19.500000 1.500000 36.500000
f 781 782 783
v 20.500000 0.500000 36.500000
v 19.500000 1.500000 36.500000
v 20.500000 1.500000 36.500000
f 784 785 786
v 21.500000 -0.500000 36.500000
v 20.500000 -0.500000 36.500000
v 20.500000 0.500000 36.500000
f 787 788 789
v 21.500000 -0.500000 36.500000
v 20.500000 0.500000 36.500000
v 21.500000 0.500000 36.500000
f 790 791 792
v 21.500000 0.500000 36.500000
v 20.500000 0.500000 36.500000
v 20.500000 1.500000 36.500000
f 793 794 795
v 21.500000 0.500000 36.500000
v 20.500000 1.500000 36.500000
v 21.500000 1.500000 36.500000
f 796 797 798
v 16.500000 -0.500000 39.500000
v 15.500000 -0.500000 39.500000
v 15.500000 0.500000 39.500000
f 799 800 801
v 16.500000 -0.500000 39.500000
v 15.500000 0.500000 39.500000
v 16.500000 0.500000 39.500000
f 802 803 804
v 17.500000 -0.500000 39.500000
v 16.500000 -0.500000 39.500000
v 16.500000 0.500000 39.500000
f 805 806 807
v 17.500000 -0.500000 39.500000
v 16.500000 0.500000 39.500000
v 17.500000 0.500000 39.500000
f 808 809 810
v 18.500000 -0.500000 39.500000
v 17.500000 -0.500000 39.500000
v 17.500000 0.500000 39.500000
f 811 812 813
v 18.500000 -0.500000 39.500000
v 17.500000 0.500000 39.500000
v 18.500000 0.500000 39.500000
f 814 815 816
v 19.500000 -0.500000 39.500000
v 18.500000 -0.500000 39.500000
v 18.500000 0.500000 39.500000
f 817 818 819
v 19.500000 -0.500000 39.500000
v 18.500000 0.500000 39.500000
v 19.500000 0.500000 39.500000
f 820 821 822
v 17.500000 0.500000 39.500000
v 16.500000 0.500000 39.500000
v 16.500000 1.500000 39.500000
f 823 824 825
v 17.500000 0.500000 39.500000
v 16.500000 1.500000 39.500000
v 17.500000 1.500000 39.500000
f 826 827 828
v 18.500000 0.500000 39.500000
v 17.500000 0.500000 39.500000
v 17.500000 1.500000 39.500000
f 829 830 831
v 18.500000 0.500000 39.500000
v 17.500000 1.500000 39.500000
v 18.500000 1.500000 39.500000
f 832 833 834
v 19.500000 0.500000 39.500000
v 18.500000 0.500000 39.500000
v 18.500000 1.500000 39.500000
f 835 836 837
v 19.500000 0.500000 39.500000
v 18.500000 1.500000 39.500000
v 19.500000 1.500000 39.500000
f 838 839 840
v 20.500000 0.500000 39.500000
v 19.500000 0.500000 39.500000
v 19.500000 1.500000 39.500000
f 841 842 843
v 20.500000 0.500000 39.500000
v 19.500000 1.500000 39.500000
v 20.500000 1.500000 39.500000
f 844 845 846
v 16.500000 0.500000 40.500000
v 15.500000 0.500000 40.500000
v 15.500000 1.500000 40.500000
f 847 848 849
v 16.500000 0.500000 40.500000
v 15.500000 1.500000 40.500000
v 16.500000 1.500000 40.500000
f 850 851 852
v 21.500000 0.500000 41.500000
v 20.500000 0.500000 41.500000
v 20.500000 1.500000 41.500000
f 853 854 855
v 21.500000 0.500000 41.500000
v 20.500000 1.500000 41.500000
v 21.500000 1.500000 41.500000
f 856 857 858
v 20.500000 0.500000 43.500000
v 19.500000 0.500000 43.500000
v 19.500000 1.500000 43.500000
f 859 860 861
v 20.500000 0.500000 43.500000
v 19.500000 1.500000 43.500000
v 20.500000 1.500000 43.500000
f 862 863 864
v 17.500000 0.500000 41.500000
v 17.500000 0.500000 40.500000
v 17.500000 1.500000 40.500000
f 865 866 867
v 17.500000 0.500000 41.500000
v 17.500000 1.500000 40.500000
v 17.500000 1.500000 41.500000
f 868 869 870
v 20.500000 0.500000 41.500000
v 20.500000 0.500000 40.500000
v 20.500000 1.500000 40.500000
f 871 872 873
v 20.500000 0.500000 41.500000
v 20.500000 1.500000 40.500000
v 20.500000 1.500000 41.500000
f 874 875 876
v 21.500000 -0.500000 37.500000
v 21.500000 -0.500000 36.500000
v 21.500000 0.500000 36.500000
f 877 878 879
v 21.500000 -0.500000 37.500000
v 21.500000 0.500000 36.500000
v 21.500000 0.500000 37.500000
f 880 881 882
v 21.500000 -0.500000 38.500000
v 21.500000 -0.500000 37.500000
v 21.500000 0.500000 37.500000
f 883 884 885
v 21.500000 -0.500000 38.500000
v 21.500000 0.500000 37.500000
v 21.500000 0.500000 38.500000
f 886 887 888
v 21.500000 -0.500000 39.500000
v 21.500000 -0.500000 38.500000
v 21.500000 0.500000 38.500000
f 889 890 891
v 21.500000 -0.500000 39.500000
v 21.500000 0.500000 38.500000
v 21.500000 0.500000 39.500000
f 892 893 894
v 21.500000 -0.500000 40.500000
v 21.500000 -0.500000 39.500000
v 21.500000 0.500000 39.500000
f 895 896 897
v 21.500000 -0.500000 40.500000
v 21.500000 0.500000 39.500000
v 21.500000 0.500000 40.500000
f 898 899 900
v 21.500000 -0.500000 41.500000
v 21.500000 -0.500000 40.500000
v 21.500000 0.500000 40.500000
f 901 902 903
v 21.500000 -0.500000 41.500000
v 21.500000 0.500000 40.500000
v 21.500000 0.500000 41.500000
f 904 905 906
v 21.500000 -0.500000 42.500000
v 21.500000 -0.500000 41.500000
v 21.500000 0.500000 41.500000
f 907 908 909
v 21.500000 -0.500000 42.500000
v 21.500000 0.500000 41.500000
v 21.500000 0.500000 42.500000
f 910 911 912
v 21.500000 -0.500000 43.500000
v 21.500000 -0.500000 42.500000
v 21.500000 0.500000 42.500000
f 913 914 915
v 21.500000 -0.500000 43.500000
v 21.500000 0.500000 42.500000
v 21.500000 0.500000 43.500000
f 916 917 918
v 21.500000 -0.500000 44.500000
v 21.500000 -0.500000 43.500000
v 21.500000 0.500000 43.500000
f 919 920 921
v 21.500000 -0.500000 44.500000
v 21.500000 0.500000 43.500000
v 21.500000 0.500000 44.500000
f 922 923 924
v 21.500000 0.500000 37.500000
v 21.500000 0.500000 36.500000
v 21.500000 1.500000 36.500000
f 925 926 927
v 21.500000 0.500000 37.500000
v 21.500000 1.500000 36.500000
v 21.500000 1.500000 37.500000
f 928 929 930
v 21.500000 0.500000 38.500000
v 21.500000 0.500000 37.500000
v 21.500000 1.500000 37.500000
f 931 932 933
v 21.500000 0.500000 38.500000
v 21.500000 1.500000 37.500000
v 21.500000 1.500000 38.500000
f 934 935 936
v 21.500000 0.500000 39.500000
v 21.500000 0.500000 38.500000
v 21.500000 1.500000 38.500000
f 937 938 939
v 21.500000 0.500000 39.500000
v 21.500000 1.500000 38.500000
v 21.500000 1.500000 39.500000
f 940 941 942
v 21.500000 0.500000 40.500000
v 21.500000 0.500000 39.500000
v 21.500000 1.500000 39.500000
f 943 944 945
v 21.500000 0.500000 40.500000
v 21.500000 1.500000 39.500000
v 21.500000 1.500000 40.500000
f 946 947 948
v 21.500000 0.500000 42.500000
v 21.500000 0.500000 41.500000
v 21.500000 1.500000 41.500000
f 949 950 951
v 21.500000 0.500000 42.500000
v 21.500000 1.500000 41.500000
v 21.500000 1.500000 42.500000
f 952 953 954
v 21.500000 0.500000 43.500000
v 21.500000 0.500000 42.500000
v 21.500000 1.500000 42.500000
f 955 956 957
v 21.500000 0.500000 43.500000
v 21.500000 1.500000 42.500000
v 21.500000 1.500000 43.500000
f 958 959 960
v 21.500000 0.500000 44.500000
v 21.500000 0.500000 43.500000
v 21.500000 1.500000 43.500000
f 961 962 963
v 21.500000 0.500000 44.500000
v 21.500000 1.500000 43.500000
v 21.500000 1.500000 44.500000
f 964 965 966
v 15.500000 0.500000 40.500000
v 15.500000 0.500000 41.500000
v 15.500000 1.500000 41.500000
f 967 968 969
v 15.500000 0.500000 40.500000
v 15.500000 1.500000 41.500000
v 15.500000 1.500000 40.500000
f 970 971 972
v 16.500000 0.500000 39.500000
v 16.500000 0.500000 40.500000
v 16.500000 1.500000 40.500000
f 973 974 975
v 16.500000 0.500000 39.500000
v 16.500000 1.500000 40.500000
v 16.500000 1.500000 39.500000
f 976 977 978
v 18.500000 0.500000 40.500000
v 18.500000 0.500000 41.500000
v 18.500000 1.500000 41.500000
f 979 980 981
v 18.500000 0.500000 40.500000
v 18.500000 1.500000 41.500000
v 18.500000 1.500000 40.500000
f 982 983 984
v 19.500000 -0.500000 36.500000
v 19.500000 -0.500000 37.500000
v 19.500000 0.500000 37.500000
f 985 986 987
v 19.500000 -0.500000 36.500000
v 19.500000 0.500000 37.500000
v 19.500000 0.500000 36.500000
f 988 989 990
v 19.500000 -0.500000 37.500000
v 19.500000 -0.500000 38.500000
v 19.500000 0.500000 38.500000
f 991 992 993
v 19.500000 -0.500000 37.500000
v 19.500000 0.500000 38.500000
v 19.500000 0.500000 37.500000
f 994 995 996
v 19.500000 -0.500000 38.500000
v 19.500000 -0.500000 39.500000
v 19.500000 0.500000 39.500000
f 997 998 999
v 19.500000 -0.500000 38.500000
v 19.500000 0.500000 39.500000
v 19.500000 0.500000 38.500000
f 1000 1001 1002
v 19.500000 -0.500000 41.500000
v 19.500000 -0.500000 42.500000
v 19.500000 0.500000 42.500000
f 1003 1004 1005
v 19.500000 -0.500000 41.500000
v 19.500000 0.500000 42.500000
v 19.500000 0.500000 41.500000
f 1006 1007 1008
v 19.500000 -0.500000 42.500000
v 19.500000 -0.500000 43.500000
v 19.500000 0.500000 43.500000
f 1009 1010 1011
v 19.500000 -0.500000 42.500000
v 19.500000 0.500000 43.500000
v 19.500000 0.500000 42.500000
f 1012 1013 1014
v 19.500000 -0.500000 43.500000
v 19.500000 -0.500000 44.500000
v 19.500000 0.500000 44.500000
f 1015 1016 1017
v 19.500000 -0.500000 43.500000
v 19.500000 0.500000 44.500000
v 19.500000 0.500000 43.500000
f 1018 1019 1020
v 19.500000 0.500000 36.500000
v 19.500000 0.500000 37.500000
v 19.500000 1.500000 37.500000
f 1021 1022 1023
v 19.500000 0.500000 36.500000
v 19.500000 1.500000 37.500000
v 19.500000 1.500000 36.500000
f 1024 1025 1026
v 19.500000 0.500000 37.500000
v 19.500000 0.500000 38.500000
v 19.500000 1.500000 38.500000
f 1027 1028 1029
v 19.500000 0.500000 37.500000
v 19.500000 1.500000 38.500000
v 19.500000 1.500000 37.500000
f 1030 1031 1032
v 19.500000 0.500000 41.500000
v 19.500000 0.500000 42.500000
v 19.500000 1.500000 42.500000
f 1033 1034 1035
v 19.500000 0.500000 41.500000
v 19.500000 1.500000 42.500000
v 19.500000 1.500000 41.500000
f 1036 1037 1038
v 19.500000 0.500000 43.500000
v 19.500000 0.500000 44.500000
v 19.500000 1.500000 44.500000
f 1039 1040 1041
v 19.500000 0.500000 43.500000
v 19.500000 1.500000 44.500000
v 19.500000 1.500000 43.500000
f 1042 1043 1044
v 20.500000 0.500000 38.500000
v 20.500000 0.500000 39.500000
v 20.500000 1.500000 39.500000
f 1045 1046 1047
v 20.500000 0.500000 38.500000
v 20.500000 1.500000 39.500000
v 20.500000 1.500000 38.500000
f 1048 1049 1050
v 20.500000 0.500000 42.500000
v 20.500000 0.500000 43.500000
v 20.500000 1.500000 43.500000
f 1051 1052 1053
v 20.500000 0.500000 42.500000
v 20.500000 1.500000 43.500000
v 20.500000 1.500000 42.500000
f 1054 1055 1056
