<?xml version="1.0" encoding="UTF-8" standalone="no"?>
<!-- Created with Inkscape (http://www.inkscape.org/) -->

<svg
   width="512"
   height="384"
   viewBox="0 0 135.46666 101.6"
   version="1.1"
   id="svg1"
   inkscape:version="1.3.1 (1:1.3.1+202311172155+91b66b0783)"
   sodipodi:docname="logo.svg"
   xmlns:inkscape="http://www.inkscape.org/namespaces/inkscape"
   xmlns:sodipodi="http://sodipodi.sourceforge.net/DTD/sodipodi-0.dtd"
   xmlns="http://www.w3.org/2000/svg"
   xmlns:svg="http://www.w3.org/2000/svg">
  <sodipodi:namedview
     id="namedview1"
     pagecolor="#ffffff"
     bordercolor="#000000"
     borderopacity="0.25"
     inkscape:showpageshadow="2"
     inkscape:pageopacity="0.0"
     inkscape:pagecheckerboard="0"
     inkscape:deskcolor="#d1d1d1"
     inkscape:document-units="mm"
     showgrid="true"
     showguides="true"
     inkscape:zoom="0.51087175"
     inkscape:cx="526.55094"
     inkscape:cy="412.04079"
     inkscape:window-width="1878"
     inkscape:window-height="1011"
     inkscape:window-x="0"
     inkscape:window-y="0"
     inkscape:window-maximized="1"
     inkscape:current-layer="layer1">
    <inkscape:grid
       id="grid1"
       units="px"
       originx="0"
       originy="0"
       spacingx="1.0583333"
       spacingy="1.0583333"
       empcolor="#0099e5"
       empopacity="0.30196078"
       color="#0099e5"
       opacity="0.14901961"
       empspacing="16"
       dotted="false"
       gridanglex="30"
       gridanglez="30"
       visible="true" />
    <sodipodi:guide
       position="50.799999,111.62986"
       orientation="1,0"
       id="guide1"
       inkscape:locked="false" />
    <sodipodi:guide
       position="67.733331,50.800001"
       orientation="0,-1"
       id="guide2"
       inkscape:locked="false" />
    <sodipodi:guide
       position="16.933332,106.72291"
       orientation="1,0"
       id="guide3"
       inkscape:locked="false" />
    <sodipodi:guide
       position="84.666662,101.60001"
       orientation="1,0"
       id="guide4"
       inkscape:locked="false" />
    <sodipodi:guide
       position="118.53333,112.41987"
       orientation="1,0"
       id="guide5"
       inkscape:locked="false" />
    <sodipodi:guide
       position="-12.947639,118.53334"
       orientation="0,-1"
       id="guide6"
       inkscape:locked="false" />
    <sodipodi:guide
       position="67.733331,16.933337"
       orientation="0,-1"
       id="guide7"
       inkscape:locked="false" />
    <sodipodi:guide
       position="28.574998,16.933338"
       orientation="0,-1"
       id="guide16"
       inkscape:locked="false" />
  </sodipodi:namedview>
  <defs
     id="defs1">
    <rect
       x="196"
       y="195.99999"
       width="244"
       height="160"
       id="rect17" />
  </defs>
  <g
     inkscape:label="Layer 1"
     inkscape:groupmode="layer"
     id="layer1">
    <path
       style="fill:#0043f2;stroke:none;stroke-width:0.340693;stroke-opacity:1;fill-opacity:0.24292563"
       d="M 16.933333,16.933325 33.866666,50.866489 50.8,16.933325 Z"
       id="path17"
       sodipodi:nodetypes="cccc" />
    <path
       style="fill:#0043f2;stroke:none;stroke-width:0.340693;stroke-opacity:1;fill-opacity:0.24292563"
       d="M 16.933333,84.666662 33.866666,50.733498 50.8,84.666662 Z"
       id="path16"
       sodipodi:nodetypes="cccc" />
    <path
       style="fill:#b00100;stroke:#000000;stroke-width:0.264583;stroke-opacity:1;fill-opacity:1"
       d="M 20.108333,20.108332 33.866666,47.624997 47.624999,20.108332 Z"
       id="path7" />
    <circle
       style="fill:#fffd27;stroke:#000000;stroke-width:0.264583;stroke-opacity:1;fill-opacity:1"
       id="path8"
       cx="67.73333"
       cy="33.866665"
       r="14.816666" />
    <path
       style="fill:#f2af00;stroke:#000000;stroke-width:0.264583;stroke-opacity:1;fill-opacity:0.9259575"
       d="m 88.899999,19.049999 h 7.408333 l 20.108338,28.574998 h -7.40834 z"
       id="path9" />
    <path
       style="fill:#f2af00;stroke:#000000;stroke-width:0.264583;stroke-opacity:1;fill-opacity:0.9259575"
       d="m 116.41667,19.049999 h -7.40833 L 88.899999,47.624997 h 7.40834 z"
       id="path10" />
    <path
       style="fill:#0aff14;stroke:#000000;stroke-width:0.264583;stroke-opacity:1;fill-opacity:1"
       d="M 20.108333,82.184352 33.866666,54.667687 47.624999,82.184352 Z"
       id="path11" />
    <path
       id="text19"
       style="font-size:34.925px;font-family:Monospace;-inkscape-font-specification:Monospace;white-space:pre;fill:#0096e7;fill-opacity:1;stroke:#000000;stroke-width:0.264583"
       d="m 66.083984,52.310547 c -2.711048,0.170138 -5.346618,0.873185 -7.966796,1.544922 0,2.61914 0,5.238281 0,7.857422 3.138205,-1.127239 6.387896,-2.667433 9.810279,-2.16089 1.952097,0.173766 1.971066,3.192305 0.06174,3.477267 -1.937321,0.431649 -3.959938,-0.104741 -5.895457,0.302763 -0.701976,0.763214 -0.190135,1.906387 -0.337634,2.833147 -0.0065,1.340392 -0.0225,2.711439 0.0076,4.032088 2.406153,0.327882 5.032424,-0.499785 7.269531,0.728515 1.703092,1.183504 1.094486,4.428466 -1.050781,4.664063 -3.266327,0.779523 -6.485868,-0.714841 -9.306641,-2.212891 -0.4284,-0.0684 -1.447076,-1.097549 -1.326172,-0.271875 0,2.660287 0,5.320573 0,7.98086 3.16843,1.15321 6.51023,1.963788 9.84535,1.830817 2.828983,-0.126574 5.866475,-0.826205 7.858477,-2.987125 2.128959,-2.14732 3.046669,-5.34828 2.458152,-8.30618 -0.319345,-1.877327 -1.262775,-3.621617 -2.603385,-4.9672 2.838883,-2.905504 2.806565,-7.904018 0.215071,-10.949944 -2.167358,-2.574911 -5.728935,-3.587331 -9.03929,-3.395759 z" />
    <path
       id="text18"
       style="font-size:34.925px;font-family:Monospace;-inkscape-font-specification:Monospace;white-space:pre;fill:#2900e7;fill-opacity:1;stroke:#000000;stroke-width:0.264583"
       d="m 100.35352,52.017578 c -3.193679,0.538094 -6.348545,1.294997 -9.515629,1.97461 0,3.584635 0,7.16927 0,10.753906 1.92086,-0.434551 3.842494,-0.865679 5.763671,-1.298828 0,3.70638 0,7.41276 0,11.11914 -1.785156,0 -3.570312,0 -5.355468,0 0,3.436849 0,6.873698 0,10.310547 7.154297,0 14.308596,0 21.462886,0 0,-3.436849 0,-6.873698 0,-10.310547 -1.76237,0 -3.52474,0 -5.2871,0 0,-7.51888 -1e-5,-15.03776 0,-22.55664 -2.35613,0.0014 -4.71224,0.0054 -7.06836,0.0078 z" />
  </g>
</svg>
